<?xml version="1.0" encoding="UTF-8" standalone="no"?>
<!DOCTYPE svg PUBLIC "-//W3C//DTD SVG 1.1//EN" "http://www.w3.org/Graphics/SVG/1.1/DTD/svg11.dtd">
<svg width="100%" height="100%" viewBox="0 0 150 225" version="1.1" style="fill-rule:evenodd;clip-rule:evenodd;stroke-linejoin:round;stroke-miterlimit:2;">
    <g transform="matrix(1.5,0,0,1.5,-1170,-540)">
        <path d="M830,360C857.596,360 880,382.404 880,410C880,437.596 843.333,510 830,510C816.667,510 780,437.596 780,410C780,382.404 802.404,360 830,360ZM830,383.333C815.282,383.333 803.333,395.282 803.333,410C803.333,424.718 815.282,436.667 830,436.667C844.718,436.667 856.667,424.718 856.667,410C856.667,395.282 844.718,383.333 830,383.333Z"/>
    </g>
</svg>
